<svg width="70" height="71" fill="none" xmlns="http://www.w3.org/2000/svg"><path d="M33.442 16.743c-1.96 1.96-2.983 4.32-3.028 7.125-.045 2.76.845 5.166 2.76 7.214l3.518-3.385c-.934-1.024-1.425-2.27-1.38-3.74.045-1.47.578-2.716 1.603-3.74l13.76-13.76c1.024-1.024 2.315-1.558 3.83-1.558 1.512 0 2.808.53 3.828 1.558l5.12 5.166c1.022 1.029 1.604 2.27 1.604 3.83 0 1.557-.578 2.803-1.603 3.828L49.65 33.085c-1.024 1.024-2.226 1.514-3.695 1.56-1.425.043-2.673-.446-3.697-1.47l-3.339 3.651c2.048 1.87 4.453 2.76 7.213 2.716 2.762-.044 5.121-1.068 7.08-3.028l13.76-13.76C68.977 20.751 70 18.302 70 15.452c0-2.85-1.024-5.299-3.028-7.303l-5.165-5.165C59.803.98 57.354 0 54.504 0c-2.85 0-5.299.98-7.303 2.984l-13.76 13.76z" fill="#EE2F2D"/><path d="M24.313 42.17c-.96.96-1.024 2.45 0 3.474.89.89 2.583.89 3.474 0l17.856-17.857c.89-.89.89-2.583 0-3.473-1.024-1.024-2.514-.96-3.473 0L24.313 42.171z" fill="#EE2F2D"/><path d="M2.984 47.202C.98 49.207 0 51.656 0 54.506c0 2.85.98 5.299 2.984 7.302l5.165 5.166C10.153 68.977 12.558 70 15.452 70s5.299-1.024 7.302-3.027l13.76-13.76c1.96-1.96 2.983-4.319 3.028-7.08.045-2.761-.846-5.165-2.716-7.214l-3.651 3.34c1.024 1.024 1.514 2.27 1.47 3.74-.044 1.425-.536 2.627-1.56 3.651L19.281 63.455c-1.024 1.025-2.315 1.56-3.829 1.56-1.514 0-2.801-.54-3.83-1.56l-5.165-5.12c-1.029-1.02-1.558-2.316-1.558-3.83 0-1.513.534-2.804 1.558-3.829l13.76-13.76c1.024-1.024 2.27-1.558 3.74-1.602 1.47-.045 2.716.445 3.74 1.38l3.385-3.518c-2.048-1.915-4.454-2.806-7.259-2.76-2.76.043-5.12 1.068-7.08 3.027l-13.76 13.76z" fill="#EE2F2D"/></svg>