<svg width="70" height="70" fill="none" xmlns="http://www.w3.org/2000/svg"><path d="M7.778 25.926c-.716 0-1.297.58-1.297 1.296v15.61a1.296 1.296 0 102.593 0v-15.61c0-.716-.58-1.296-1.296-1.296zm5.185-9.074c-.716 0-1.296.58-1.296 1.296v15.61a1.296 1.296 0 102.592 0v-15.61c0-.717-.58-1.296-1.296-1.296zm0 20.742c-.716 0-1.296.58-1.296 1.296V54.5a1.296 1.296 0 102.592 0V38.89c0-.716-.58-1.296-1.296-1.296zm5.185-25.926c-.716 0-1.296.58-1.296 1.296v15.61a1.296 1.296 0 102.592 0v-15.61c0-.716-.58-1.296-1.296-1.296zm0 20.738c-.716 0-1.296.58-1.296 1.297v24.63a1.296 1.296 0 102.592 0v-24.63c0-.717-.58-1.297-1.296-1.297zm10.37 5.188c-.715 0-1.296.58-1.296 1.296v24.63a1.296 1.296 0 102.593 0V38.89c0-.716-.58-1.296-1.297-1.296zm5.186 1.296c-.716 0-1.297.58-1.297 1.297v9.074a1.296 1.296 0 102.593 0v-9.074c0-.716-.58-1.296-1.296-1.296zm0-33.706c-.716 0-1.297.58-1.297 1.296v28.518a1.296 1.296 0 102.593 0V6.48c0-.717-.58-1.296-1.296-1.296zm0 47.964c-.716 0-1.297.58-1.297 1.297v9.074a1.296 1.296 0 102.593 0v-9.074c0-.717-.58-1.297-1.296-1.297zM23.333 25.926c-.715 0-1.296.58-1.296 1.296v16.852a1.296 1.296 0 102.593 0V27.222c0-.716-.58-1.296-1.297-1.296zm5.185 1.297c-.715 0-1.296.58-1.296 1.296v5.185a1.296 1.296 0 102.593 0V28.52c0-.716-.58-1.296-1.297-1.296zm0-20.743c-.715 0-1.296.58-1.296 1.297v15.555a1.296 1.296 0 102.593 0V7.777c0-.717-.58-1.297-1.297-1.297zm-5.185 41.485c-.715 0-1.296.58-1.296 1.296v11.667a1.296 1.296 0 102.593 0V49.26c0-.716-.58-1.296-1.297-1.296zm0-38.891c-.715 0-1.296.58-1.296 1.296v11.667a1.296 1.296 0 102.593 0V10.371c0-.717-.58-1.297-1.297-1.297z" fill="#EE2F2D"/><path d="M35 0C15.701 0 0 15.701 0 35s15.701 35 35 35 35-15.701 35-35S54.299 0 35 0zm0 67.407C17.13 67.407 2.593 52.87 2.593 35 2.593 17.13 17.13 2.593 35 2.593 52.87 2.593 67.407 17.13 67.407 35c0 17.87-14.537 32.407-32.407 32.407z" fill="#EE2F2D"/></svg>