<svg width="70" height="60" fill="none" xmlns="http://www.w3.org/2000/svg"><path d="M68.334 59.077H1.667A1.665 1.665 0 01.21 56.602L30.046 2.82c.023-.041.047-.08.073-.119A6.05 6.05 0 0135.145 0c1.94 0 3.665.917 4.736 2.517.026.039.05.08.074.12l29.836 53.967a1.667 1.667 0 01-1.458 2.473zM4.498 55.743h61.01L37.078 4.321c-.604-.858-1.466-.988-1.932-.988a2.72 2.72 0 00-2.223 1.171L4.498 55.744z" fill="#EE2F2D"/><path d="M45.368 50.745c-.92 0-1.666-.747-1.666-1.667V38.593c0-.893-1.028-1.737-2.115-1.737h-.324c-1.05 0-2.006.828-2.006 1.737v5.183c0 3.022-2.015 5.302-4.686 5.302h-.864c-2.91 0-5.56-2.527-5.56-5.302V25.745a1.667 1.667 0 013.333 0v18.03c0 .92 1.186 1.97 2.227 1.97h.864c1.07 0 1.353-1.288 1.353-1.97v-5.182c0-2.748 2.446-5.07 5.339-5.07h.324c2.954 0 5.448 2.322 5.448 5.07v10.485c0 .92-.746 1.667-1.666 1.667z" fill="#EE2F2D"/></svg>