<svg width="73" height="73" fill="none" xmlns="http://www.w3.org/2000/svg"><circle cx="36.5" cy="36.5" r="36.5" fill="#EE2F2D"/><path d="M46.84 28.413a.555.555 0 01-1.11 0v-5.175H26.788v7.484h19.498a.555.555 0 010 1.11H26.232a.556.556 0 01-.555-.555v-8.594c0-.306.25-.554.555-.554h20.052c.306 0 .554.248.554.554v5.73h.002zm-18.3 7.326V34.7h-1.753v1.038h1.754zm1.111-1.593v2.147a.555.555 0 01-.555.554h-2.864a.555.555 0 01-.555-.554v-2.148c0-.306.25-.555.555-.555h2.864c.307.001.555.25.555.555zm1.756 2.148v-2.149c0-.306.248-.555.555-.555h2.864c.306 0 .556.25.556.555v2.148c0 .306-.25.554-.556.554h-2.864a.553.553 0 01-.555-.553zm1.11-1.593v1.039h1.755V34.7h-1.755zm10.348 1.593v-2.149c0-.306.248-.555.554-.555h2.865c.306 0 .555.25.555.555v2.148a.555.555 0 01-.555.554H43.42a.553.553 0 01-.555-.553zm1.11-1.593v1.039h1.755V34.7h-1.755zM40 35.739V34.7h-1.754v1.038H40zm1.11-1.593v2.147a.555.555 0 01-.556.554h-2.863a.555.555 0 01-.555-.554v-2.148c0-.306.25-.555.555-.555h2.863c.308.001.556.25.556.555zm-12.57 6.603v-1.037h-1.753v1.037h1.754zm1.111-1.593v2.149a.555.555 0 01-.555.554h-2.864a.555.555 0 01-.555-.554v-2.149c0-.306.25-.554.555-.554h2.864a.554.554 0 01.555.554zm1.756 2.149v-2.149c0-.306.248-.554.555-.554h2.864c.306 0 .556.249.556.554v2.149c0 .306-.25.554-.556.554h-2.864a.555.555 0 01-.555-.554zm1.11-1.593v1.037h1.755v-1.037h-1.755zm10.348 1.593v-2.149c0-.306.248-.554.554-.554h2.865c.306 0 .555.249.555.554v2.149a.555.555 0 01-.555.554H43.42a.556.556 0 01-.555-.554zm1.11-1.593v1.037h1.755v-1.037h-1.755zM40 40.749v-1.037h-1.754v1.037H40zm1.11-1.593v2.149a.555.555 0 01-.556.554h-2.863a.555.555 0 01-.555-.554v-2.149c0-.306.25-.554.555-.554h2.863a.554.554 0 01.556.554zm-12.57 6.61v-1.039h-1.753v1.039h1.754zm1.111-1.593v2.147a.555.555 0 01-.555.555h-2.864a.555.555 0 01-.555-.555v-2.147c0-.306.25-.556.555-.556h2.864c.307 0 .555.25.555.556zm1.756 2.145v-2.149c0-.306.248-.556.555-.556h2.864c.306 0 .556.25.556.556v2.148c0 .306-.25.555-.556.555h-2.864a.555.555 0 01-.555-.554zm1.11-1.593v1.038h1.755v-1.038h-1.755zm-3.977 6.053v-1.039h-1.753v1.039h1.754zm1.111-1.593v2.147a.556.556 0 01-.555.556h-2.864a.555.555 0 01-.555-.556v-2.148c0-.306.25-.555.555-.555h2.864c.307 0 .555.25.555.556zm1.756 2.147v-2.147c0-.307.248-.556.555-.556h2.864c.306 0 .556.248.556.556v2.147c0 .306-.25.556-.556.556h-2.864a.556.556 0 01-.555-.556zm1.11-1.593v1.039h1.755v-1.039h-1.755zm13.213-3.973v-1.039h-7.485v1.039h7.484zm1.11-1.593v2.147a.555.555 0 01-.555.555h-8.594a.555.555 0 01-.555-.555v-2.147c0-.306.25-.556.555-.556h8.593c.307 0 .555.25.555.556zm-1.11 6.605v-1.039h-7.485v1.039h7.484zm1.11-1.593v2.147a.555.555 0 01-.555.556h-8.594a.555.555 0 01-.555-.556v-2.148c0-.306.25-.555.555-.555h8.593c.307 0 .555.25.555.556z" fill="#fff"/><path d="M46.285 20.376H26.232c-.633 0-1.212.26-1.63.677l-.002.002a2.308 2.308 0 00-.677 1.63V51.33c0 .634.26 1.213.678 1.633v-.002c.419.419.998.68 1.63.68h20.054a2.3 2.3 0 001.63-.68c.418-.418.68-.996.68-1.63V22.686a2.3 2.3 0 00-.68-1.63l-.024-.028a2.311 2.311 0 00-1.606-.651zm-20.053-1.11h20.053c.92 0 1.76.37 2.376.969l.04.036a3.414 3.414 0 011.003 2.415v28.647c0 .941-.386 1.797-1.004 2.415a3.414 3.414 0 01-2.415 1.004H26.232a3.412 3.412 0 01-2.416-1.004l.002-.001-.002-.001a3.417 3.417 0 01-1.003-2.415V22.685c0-.94.385-1.794 1.003-2.413l.003-.002a3.412 3.412 0 012.413-1.004z" fill="#fff"/></svg>