<svg width="73" height="73" fill="none" xmlns="http://www.w3.org/2000/svg"><circle cx="36.5" cy="36.5" r="36.5" fill="#EE2F2D"/><path d="M54.243 37.75l-6.368-7.19h-5.901v-2.845h-7.04c-1.354-2.893-4.292-4.902-7.691-4.902-4.68 0-8.486 3.806-8.486 8.486A8.494 8.494 0 0023.28 38.8v6.7h3.228a3.928 3.928 0 003.92 3.76 3.928 3.928 0 003.918-3.76h8.83a3.928 3.928 0 003.92 3.76 3.928 3.928 0 003.92-3.76h3.227v-7.75zm-34.008-6.451a7.015 7.015 0 017.008-7.008 7.015 7.015 0 017.007 7.008 7.015 7.015 0 01-7.007 7.007 7.015 7.015 0 01-7.008-7.007zM30.427 47.78a2.448 2.448 0 01-2.445-2.445 2.448 2.448 0 012.445-2.445 2.448 2.448 0 012.445 2.445 2.448 2.448 0 01-2.445 2.445zm10.068-3.76h-6.372a3.93 3.93 0 00-3.696-2.608 3.93 3.93 0 00-3.696 2.609h-1.973v-4.609c.787.241 1.62.372 2.485.372 4.679 0 8.486-3.807 8.486-8.486 0-.727-.092-1.432-.265-2.105h5.031v14.828zm6.6 3.76a2.448 2.448 0 01-2.444-2.445 2.448 2.448 0 012.445-2.445 2.448 2.448 0 012.445 2.445 2.447 2.447 0 01-2.445 2.445zm5.67-3.76h-1.973a3.93 3.93 0 00-3.696-2.608 3.93 3.93 0 00-3.696 2.609h-1.426V32.038h5.235l5.555 6.272v5.712z" fill="#fff"/><path d="M30.559 32.375l-2.577-1.501v-4.936h-1.479v5.786l3.312 1.929.744-1.278z" fill="#fff"/></svg>