<svg width="73" height="73" fill="none" xmlns="http://www.w3.org/2000/svg"><circle cx="36.5" cy="36.5" r="36.5" fill="#EE2F2D"/><path d="M24.48 37.01v11.447c0 .316.256.572.573.572H36.5a.572.572 0 00.405-.977L25.457 36.605a.573.573 0 00-.977.405zm1.145 1.381l9.493 9.494h-9.493V38.39z" fill="#fff"/><path d="M53.67 19.266H19.33a.572.572 0 00-.573.572v34.341c0 .317.256.573.572.573h34.342a.572.572 0 00.572-.573V19.838a.572.572 0 00-.572-.572zM19.902 20.41h33.197v5.724H19.901V20.41zm6.533 6.869H43.94v17.506L26.434 27.279zm19.224 26.328v-2.29h-1.145v2.29h-1.145v-2.29h-1.145v2.29H41.08v-2.29h-1.145v2.29H38.79v-2.29h-1.144v2.29H36.5v-3.434h-1.145v3.434h-1.144v-2.29h-1.145v2.29H31.92v-2.29h-1.145v2.29h-1.144v-2.29h-1.145v2.29h-1.145v-2.29h-1.144v2.29h-1.145v-3.434h-1.145v3.434H19.9v-3.434h2.29v-1.145H19.9v-1.145h2.29V46.74H19.9v-1.145h2.29V44.45H19.9v-1.144h2.29V42.16H19.9v-1.145h3.435V39.87h-3.434v-1.144h2.289V37.58H19.9v-1.145h2.29v-1.144H19.9v-1.145h2.29v-1.145H19.9v-1.145h2.29v-1.144H19.9v-1.145h3.435v-1.145h-3.434V27.28h4.914l26.328 26.328h-5.486zm7.105 0l-7.678-7.678V27.28h8.013v1.144h-3.434v1.145h3.434v1.145h-2.29v1.145h2.29v1.144h-2.29v1.145h2.29v1.145h-2.29v1.144h2.29v1.145h-2.29v1.145h2.29v1.145h-3.434v1.144h3.434v1.145h-2.29v1.145h2.29v1.144h-2.29v1.145h2.29v1.145h-2.29v1.145h2.29v1.144h-2.29v1.145h2.29v3.434h-.335z" fill="#fff"/><path d="M42.796 21.555H30.204a.572.572 0 00-.572.572v2.29c0 .316.255.572.572.572h12.592a.572.572 0 00.572-.573v-2.289a.572.572 0 00-.572-.572zm-.573 2.29H30.776v-1.146h11.447v1.145z" fill="#fff"/></svg>