<svg width="73" height="73" fill="none" xmlns="http://www.w3.org/2000/svg"><circle cx="36.5" cy="36.5" r="36.5" fill="#EE2F2D"/><path d="M26.63 44.8a.512.512 0 01-.512-.513 3.171 3.171 0 00-3.169-3.168 3.171 3.171 0 00-3.168 3.168.512.512 0 11-1.024 0V23.458a4.197 4.197 0 014.192-4.192 4.197 4.197 0 014.193 4.192v20.83a.512.512 0 01-.512.512zm-3.68-4.705c1.263 0 2.399.562 3.168 1.45V23.457a3.171 3.171 0 00-3.169-3.168 3.171 3.171 0 00-3.168 3.168v18.086a4.183 4.183 0 013.168-1.45z" fill="#fff"/><path d="M53.73 48.48a.512.512 0 01-.511-.513V23.97H27.142v20.317a.512.512 0 11-1.024 0 3.171 3.171 0 00-3.169-3.168 3.171 3.171 0 00-3.168 3.168 3.171 3.171 0 003.168 3.168h27.853a.512.512 0 110 1.024H22.949a4.197 4.197 0 01-4.192-4.192 4.197 4.197 0 014.192-4.193c1.264 0 2.4.562 3.168 1.45V23.458c0-.284.23-.513.513-.513h27.1c.284 0 .513.23.513.512v24.51a.512.512 0 01-.512.512z" fill="#fff"/><path d="M34.4 32.387h-5.007a.512.512 0 01-.512-.512v-5.007c0-.284.23-.512.512-.512H34.4c.283 0 .512.228.512.512v5.007c0 .283-.23.512-.512.512zm-4.495-1.025h3.983V27.38h-3.983v3.982zm8.829 13.468H34.94a.512.512 0 110-1.025h3.28V35.49h-8.316v8.316h.684a.512.512 0 110 1.025h-1.196a.512.512 0 01-.512-.512v-9.341c0-.283.23-.512.512-.512h9.34c.284 0 .513.229.513.512v9.34a.512.512 0 01-.512.513z" fill="#fff"/><path d="M32.523 44.829a.515.515 0 01-.513-.512.531.531 0 01.086-.285.512.512 0 11.426.797zm17.195-12.442H36.5a.512.512 0 01-.512-.512v-5.007c0-.284.229-.512.512-.512h6.468a.512.512 0 110 1.024h-5.956v3.982h12.194V27.38h-2.365a.512.512 0 110-1.024h2.877c.283 0 .512.228.512.512v5.007a.512.512 0 01-.512.512z" fill="#fff"/><path d="M44.787 27.38a.51.51 0 01-.426-.228.514.514 0 01-.077-.384.545.545 0 01.077-.185.462.462 0 01.141-.141.543.543 0 01.384-.076.538.538 0 01.185.076.5.5 0 01.189.23.545.545 0 01.038.196.53.53 0 01-.038.196.564.564 0 01-.112.166.55.55 0 01-.166.11.475.475 0 01-.195.04zm-.075 17.692h-2.803a.512.512 0 01-.512-.512v-9.583c0-.283.229-.512.512-.512h2.803c.283 0 .512.229.512.512v9.584a.512.512 0 01-.512.51zm-2.29-1.024H44.2v-8.559h-1.778v8.559zm7.296 1.024h-2.802a.512.512 0 01-.512-.512v-9.583c0-.283.229-.512.512-.512h2.802c.283 0 .512.229.512.512v9.584a.51.51 0 01-.512.51zm-2.29-1.024h1.778v-8.559h-1.778v8.559zM22.73 38.181a.512.512 0 01-.512-.512V24.02a.512.512 0 111.025 0v13.65c0 .282-.23.511-.513.511zm0-15.266a.515.515 0 01-.512-.512.515.515 0 01.613-.503.57.57 0 01.183.077.515.515 0 01.078.788.508.508 0 01-.362.15z" fill="#fff"/></svg>