<svg width="20" height="20" fill="none" xmlns="http://www.w3.org/2000/svg"><path d="M10 20C4.486 20 0 15.512 0 10 0 4.486 4.486 0 10 0s10 4.486 10 10-4.487 10-10 10zM10 .677C4.86.678.678 4.86.678 10c0 5.14 4.182 9.322 9.322 9.322 5.14 0 9.322-4.182 9.322-9.322C19.322 4.86 15.14.678 10 .678z" fill="#27B43E"/><path d="M8.74 14.9l-4.606-4.027a.366.366 0 01-.046-.52.38.38 0 01.531-.017l4.607 4.027c.159.14.18.372.045.52a.38.38 0 01-.53.018z" fill="#27B43E"/><path d="M8.784 14.926c-.158-.123-.169-.37-.023-.553l6.562-8.197c.146-.183.393-.23.551-.108.159.123.169.37.023.552l-6.562 8.198c-.146.182-.393.23-.551.108z" fill="#27B43E"/></svg>