<svg width="20" height="20" fill="none" xmlns="http://www.w3.org/2000/svg"><path d="M10 20C4.486 20 0 15.512 0 10 0 4.486 4.486 0 10 0s10 4.486 10 10-4.487 10-10 10zM10 .677C4.86.678.678 4.86.678 10c0 5.14 4.182 9.322 9.322 9.322 5.14 0 9.322-4.182 9.322-9.322C19.322 4.86 15.14.678 10 .678z" fill="#EE2F2D"/><path d="M13.206 7.247l-5.93 5.98a.34.34 0 01-.482-.477l5.93-5.98a.34.34 0 01.482.477z" fill="#EE2F2D"/><path d="M13.23 13.202a.34.34 0 01-.479.002l-5.98-5.929a.34.34 0 01.478-.481l5.98 5.929a.34.34 0 01.002.48z" fill="#EE2F2D"/></svg>