<svg width="47" height="60" fill="none" xmlns="http://www.w3.org/2000/svg"><path d="M43.114 55.309a.933.933 0 01-1.867 0l-.008-53.434H1.87l.008 56.248h43.12l.003-19.685a.934.934 0 011.867 0l-.004 20.529.004.096c0 .517-.42.937-.937.937H.947v-.004a.934.934 0 01-.933-.934L.004 1.033 0 .937C0 .42.42 0 .937 0h41.235v.004c.516 0 .934.418.934.933l.008 54.372z" fill="#EE2F2D"/><path d="M8.437 26.254a.938.938 0 010-1.875h26.337a.938.938 0 010 1.875H8.437zm0 5.625a.938.938 0 010-1.875h26.337a.938.938 0 010 1.875H8.437zm0 5.627a.938.938 0 010-1.875h26.337a.938.938 0 010 1.875H8.437zm0 5.624a.938.938 0 010-1.874h17.025a.937.937 0 010 1.875H8.437zm15.008-31.878a.938.938 0 010-1.875h11.23a.938.938 0 010 1.875h-11.23zM12.185 7.5c1.295 0 2.469.525 3.316 1.373l.057.062a4.675 4.675 0 011.316 3.252 4.678 4.678 0 01-1.373 3.317 4.678 4.678 0 01-3.316 1.373 4.68 4.68 0 01-4.687-4.69 4.67 4.67 0 011.373-3.31l.004-.004a4.671 4.671 0 013.31-1.373zm1.99 2.7a2.81 2.81 0 00-1.99-.825c-.781 0-1.484.314-1.99.82l-.004.004a2.794 2.794 0 00-.818 1.988c0 .777.316 1.483.824 1.99a2.809 2.809 0 003.978 0 2.81 2.81 0 00.824-1.99 2.79 2.79 0 00-.779-1.947l-.045-.04zm9.27 6.208a.938.938 0 010-1.875h11.23a.938.938 0 010 1.875h-11.23z" fill="#EE2F2D"/></svg>