<svg width="60" height="61" fill="none" xmlns="http://www.w3.org/2000/svg"><path d="M48.86 0v11.141H60V0H48.86zm9.1 9.1H50.9V2.04h7.06V9.1zM48.86 60H60V48.86H48.86V60zm2.04-9.1h7.06v7.06H50.9V50.9zM0 60h11.141V48.86H0V60zm2.04-9.1H9.1v7.06H2.04V50.9zM0 11.141h11.141V0H0v11.141zm2.04-9.1H9.1V9.1H2.04V2.04zm22.39 33.53h11.14V24.43H24.43v11.14zm2.04-9.101h7.06v7.06h-7.06v-7.06zM14.843 4.55h-2.021v2.041h2.02v-2.04zm4.042 0h-2.021v2.041h2.021v-2.04zm20.21 0h-2.021v2.041h2.02v-2.04zm-4.042 0h-2.021v2.041h2.02v-2.04zm8.083 0h-2.02v2.041h2.02v-2.04zm-16.168 0h-2.02v2.041h2.02v-2.04zm4.043 0h-2.02v2.041h2.02v-2.04zm-8.084 0h-2.021v2.041h2.02v-2.04zm24.252 0h-2.022v2.041h2.022v-2.04zM26.968 53.408h-2.02v2.04h2.02v-2.04zm-12.125 0h-2.021v2.04h2.02v-2.04zm8.084 0h-2.021v2.04h2.02v-2.04zm-4.042 0h-2.021v2.04h2.021v-2.04zm12.126 0h-2.02v2.04h2.02v-2.04zm16.168 0h-2.022v2.04h2.022v-2.04zm-4.043 0h-2.02v2.04h2.02v-2.04zm-8.083 0h-2.021v2.04h2.02v-2.04zm4.042 0h-2.021v2.04h2.02v-2.04zm16.355-8.252h-2.04v2.021h2.04v-2.02zm0-4.041h-2.04v2.021h2.04v-2.02zm0-8.084h-2.04v2.022h2.04V33.03zm0-4.041h-2.04v2.021h2.04v-2.02zm0 8.084h-2.04v2.021h2.04v-2.02zm0-20.211h-2.04v2.021h2.04v-2.02zm0 8.084h-2.04v2.021h2.04v-2.02zm0-12.127h-2.04v2.021h2.04v-2.02zm0 8.086h-2.04v2.021h2.04v-2.02zM6.591 16.863h-2.04v2.021h2.04v-2.02zm0-4.043h-2.04v2.021h2.04v-2.02zm0 8.086h-2.04v2.021h2.04v-2.02zm0 16.168h-2.04v2.021h2.04v-2.02zm0 8.082h-2.04v2.021h2.04v-2.02zm0-4.041h-2.04v2.021h2.04v-2.02zm0-16.168h-2.04v2.021h2.04v-2.02zm0 4.043h-2.04v2.021h2.04v-2.02zm0 4.041h-2.04v2.022h2.04V33.03z" fill="#EE2F2D"/></svg>