<svg width="60" height="36" fill="none" xmlns="http://www.w3.org/2000/svg"><path d="M33.76 15.94a.938.938 0 111.875 0v18.745c0 .518-.42.938-.938.938l-.096-.004-20.529.004a.934.934 0 01-.933-.934h-.004V15.94a.938.938 0 011.875 0v17.817l18.75-.004V15.939zM10.315 33.748a.938.938 0 010 1.875H.938A.938.938 0 010 34.685V12.188c0-.518.42-.938.938-.938h9.385a.938.938 0 010 1.875H1.875v20.623h8.44zm28.134-20.623a.938.938 0 010-1.875h9.366c.517 0 .937.42.937.938v22.496c0 .517-.42.937-.938.937H38.45a.938.938 0 010-1.875h8.426v-20.62H38.45z" fill="#EE2F2D"/><path d="M24.375 31.875a7.479 7.479 0 01-5.299-2.197l-.003-.004a7.47 7.47 0 01-2.198-5.299 7.48 7.48 0 012.198-5.3l.002-.002-.005-.003a7.477 7.477 0 015.303-2.197c2.067 0 3.944.842 5.301 2.201l.002-.002a7.481 7.481 0 012.197 5.305 7.48 7.48 0 01-2.197 5.303 7.479 7.479 0 01-5.3 2.195zm-3.982-3.523l.004.004a5.619 5.619 0 003.976 1.642 5.609 5.609 0 003.977-1.648 5.607 5.607 0 001.648-3.977c0-1.552-.63-2.96-1.648-3.978l.002-.002-.002-.002a5.61 5.61 0 00-3.977-1.645 5.604 5.604 0 00-3.976 1.649l-.002-.002a5.639 5.639 0 00-.002 7.959zM4.69 9.373a.938.938 0 010-1.875h7.51a.938.938 0 010 1.875H4.69zm37.51 0a.938.938 0 010-1.875h9.364c.518 0 .938.42.938.938v22.497h-1.875V9.373h-8.428z" fill="#EE2F2D"/><path d="M8.442 5.623a.938.938 0 010-1.875h7.51a.938.938 0 010 1.875h-7.51zm37.51 0a.938.938 0 010-1.875h9.364c.518 0 .938.42.938.938v22.5h-1.875V5.623H45.95z" fill="#EE2F2D"/><path d="M12.192 1.867a.934.934 0 110-1.867l7.506.004a.934.934 0 110 1.867l-7.506-.004zm37.515.004a.933.933 0 110-1.867L59.067 0c.515 0 .933.418.933.934v.023l-.006 22.48a.934.934 0 01-1.867 0l.006-21.57-8.426.004zM16.336 11.25h17.93l7.81-9.375H25.713l-9.377 9.375zm18.361 1.875H14.072a.942.942 0 01-.663-.274.94.94 0 010-1.326L24.659.275A.944.944 0 0125.323 0h18.748v.006a.935.935 0 01.719 1.529l-9.316 11.182a.942.942 0 01-.778.408zM8.438 26.252a2.805 2.805 0 01-1.989-.824 2.808 2.808 0 01-.824-1.989c0-.777.315-1.48.824-1.99a2.804 2.804 0 013.973 0l.004.004.023.023.008.01a2.803 2.803 0 01-.033 3.94l-.072.07a2.811 2.811 0 01-1.914.756zm-.662-2.15a.94.94 0 001.29.039l.036-.038a.947.947 0 00.004-1.328l-.004-.003a.944.944 0 00-1.326.006.936.936 0 000 1.323zm32.539 2.148a2.802 2.802 0 01-1.985-.824l-.002-.002-.002.002a2.808 2.808 0 010-3.973l.004-.004.023-.023.008-.01a2.807 2.807 0 013.94.033l.004.004.023.023.008.008a2.806 2.806 0 01-.033 3.94l-.076.068a2.79 2.79 0 01-1.912.758zm-.666-2.149a.939.939 0 00.666.272c.242 0 .464-.09.628-.236l.035-.037a.94.94 0 00.006-1.327l-.003-.003a.944.944 0 00-.664-.27.947.947 0 00-.664.27l-.004.003a.944.944 0 00.006 1.327l-.007.001zm.472-11.913a.938.938 0 011.875 0 5.805 5.805 0 005.813 5.81.938.938 0 010 1.875 7.661 7.661 0 01-5.432-2.252l-.004-.004a7.654 7.654 0 01-2.252-5.43zm-33.371 0a.938.938 0 011.875 0 7.672 7.672 0 01-2.252 5.431l-.004.004a7.656 7.656 0 01-5.43 2.252.938.938 0 110-1.875c1.607 0 3.06-.65 4.11-1.7l.003-.003a5.794 5.794 0 001.7-4.11zm35.246 22.5a.938.938 0 01-1.875 0 7.66 7.66 0 012.252-5.43l.004-.004a7.66 7.66 0 015.431-2.252.938.938 0 010 1.875c-1.607 0-3.06.65-4.109 1.7l-.004.003a5.785 5.785 0 00-1.699 4.108zm-33.371 0a.938.938 0 01-1.875 0c0-1.606-.65-3.061-1.7-4.108l-.003-.004a5.793 5.793 0 00-4.11-1.7.938.938 0 010-1.874c2.118 0 4.038.86 5.43 2.252l.004.004a7.654 7.654 0 012.254 5.43z" fill="#EE2F2D"/></svg>