<svg width="60" height="61" fill="none" xmlns="http://www.w3.org/2000/svg"><path d="M59.529 25.327l-11.22-8.049c.031-.17.05-.343.05-.52v-13.9A2.862 2.862 0 0045.499 0h-4.152a2.862 2.862 0 00-2.86 2.859v7.373l-7.882-5.654a1.037 1.037 0 00-.496-.188 1.057 1.057 0 00-.746.188L.44 25.327a1.053 1.053 0 101.228 1.711L29.984 6.726l8.504 6.1 2.106 1.511 4.423 3.174 2.166 1.553 11.118 7.976a1.052 1.052 0 001.47-.242 1.054 1.054 0 00-.242-1.47zM40.594 11.744V2.859c0-.415.338-.752.753-.752H45.5c.414 0 .752.337.752.752v12.944l-5.658-4.06z" fill="#EE2F2D"/><path d="M51.201 26.69c-.582 0-1.053.471-1.053 1.053V57.63c0 .064-.213.263-.583.263H37.758V39.551c0-.582-.471-1.053-1.053-1.053H23.263c-.582 0-1.054.471-1.054 1.053v18.343H10.403c-.37 0-.583-.2-.583-.263V27.743a1.053 1.053 0 10-2.106 0V57.63c0 .04.004.077.006.116C7.79 58.999 8.964 60 10.403 60h12.86c.582 0 1.053-.472 1.053-1.053V40.603h11.336v18.343c0 .582.471 1.054 1.053 1.054h12.86c1.439 0 2.614-1.001 2.683-2.254.002-.039.006-.077.006-.116V27.743c0-.582-.471-1.053-1.053-1.053z" fill="#EE2F2D"/><path d="M35.775 26.061a5.79 5.79 0 00-5.784-5.784 5.79 5.79 0 00-5.784 5.784 5.79 5.79 0 005.784 5.785 5.79 5.79 0 005.784-5.785zm-9.461 0a3.682 3.682 0 013.677-3.677 3.682 3.682 0 013.678 3.677 3.682 3.682 0 01-3.678 3.678 3.682 3.682 0 01-3.677-3.678z" fill="#EE2F2D"/></svg>