<svg width="45" height="61" fill="none" xmlns="http://www.w3.org/2000/svg"><path d="M35.86 11.47a.867.867 0 01-.814-.575.868.868 0 01.8-1.2h.016c.478 0 .865.387.865.866v.041a.867.867 0 01-.867.867z" fill="#EE2F2D"/><path d="M33.135 43.288h-3.817a3.595 3.595 0 01-3.591-3.59v-3.403a.865.865 0 111.731 0v3.402c0 1.026.834 1.86 1.86 1.86h3.817c1.026 0 1.86-.834 1.86-1.86V13.52a3.23 3.23 0 01-3.768-.694 3.224 3.224 0 01-3.77.694v19.336a.865.865 0 11-1.732 0V11.188a.866.866 0 011.707-.204 1.48 1.48 0 001.443 1.13c.42 0 .808-.17 1.092-.479.322-.349.78-.55 1.257-.55h.001c.478 0 .937.2 1.26.55.284.31.672.479 1.092.479.685 0 1.278-.464 1.442-1.127a.866.866 0 011.707.208v28.502c0 1.98-1.61 3.591-3.59 3.591z" fill="#EE2F2D"/><path d="M31.227 37.16a.865.865 0 01-.866-.866v-17.53a.865.865 0 111.731 0v17.53a.865.865 0 01-.865.866zm0-20.445a.87.87 0 01-.85-.697.866.866 0 01.13-.649.877.877 0 011.051-.32.87.87 0 01.534.801.866.866 0 01-.865.865zm2.351-2.87a3.23 3.23 0 01-2.352-1.02 3.224 3.224 0 01-2.351 1.02 3.207 3.207 0 01-3.175-2.697 1.685 1.685 0 01.11-.93 1.67 1.67 0 01.15-.283l4.485-9.44a.866.866 0 011.563 0l4.485 9.443a1.683 1.683 0 01.191.397c.087.259.112.535.07.8a3.209 3.209 0 01-3.175 2.71zm-2.352-2.761c.478 0 .937.2 1.26.55a1.483 1.483 0 002.556-.751.91.91 0 01-.083-.14l-3.733-7.856-3.732 7.857a.96.96 0 01-.081.137c.006.033.012.068.02.103a1.48 1.48 0 001.443 1.127c.42 0 .808-.17 1.092-.48.322-.348.78-.55 1.257-.55 0 .003.002.003.002.003z" fill="#EE2F2D"/><path d="M33.529 6.581h-4.603a.865.865 0 110-1.731h4.603a.865.865 0 110 1.731zm-.213 36.708h-4.179c-1.88 0-3.41-1.53-3.41-3.41v-3.583c0-.48.387-.866.866-.866h9.269c.478 0 .865.387.865.866v3.582a3.416 3.416 0 01-3.411 3.41zm-5.859-6.128v2.717a1.68 1.68 0 001.679 1.679h4.18a1.68 1.68 0 001.678-1.679v-2.717h-7.537zm8.403 11.98a.866.866 0 01-.48-.146.866.866 0 01-.369-.55.867.867 0 01.237-.782.847.847 0 01.282-.187.86.86 0 011.05.318.866.866 0 01.08.813.81.81 0 01-.08.148.74.74 0 01-.107.133.868.868 0 01-.612.254zM1.227 60H.866A.865.865 0 010 59.134V1.491C0 1.012.387.625.866.625H16.31c.48 0 .866.387.866.866v40.931a.865.865 0 11-1.732 0V2.357H1.732v55.347l14.072-10.131a.865.865 0 111.012 1.405L1.733 59.837a.863.863 0 01-.506.163z" fill="#EE2F2D"/><path d="M6.488 8.398H.866a.865.865 0 110-1.732h5.622a.865.865 0 110 1.732zm0 8.402H.866a.865.865 0 110-1.732h5.622a.865.865 0 110 1.732zm0 8.402a.868.868 0 01-.612-1.478.873.873 0 011.225 0 .864.864 0 01.236.442.873.873 0 01-.369.89.842.842 0 01-.48.146zM3.676 25.2H.866a.865.865 0 110-1.731h2.81a.865.865 0 110 1.732zm2.812 8.403H.866a.865.865 0 110-1.732h5.622a.865.865 0 110 1.732zm0 8.4H.866a.865.865 0 110-1.731h5.622a.865.865 0 110 1.731zm0 8.403H.866a.865.865 0 110-1.732h5.622a.865.865 0 110 1.732zM43.504 60H1.227a.865.865 0 01-.506-1.568l15.083-10.859a.864.864 0 01.506-.163h16.645a.865.865 0 110 1.732H16.589L3.91 58.269h38.727v-9.127h-3.914a.865.865 0 110-1.732h4.78c.479 0 .866.387.866.866v10.859a.865.865 0 01-.866.866z" fill="#EE2F2D"/></svg>