<svg width="47" height="60" fill="none" xmlns="http://www.w3.org/2000/svg"><path d="M11.869 14.15c3.908 0 7.063-3.18 7.063-7.063C18.932 3.204 15.777 0 11.87 0S4.806 3.18 4.806 7.063c0 3.884 3.155 7.087 7.063 7.087zm0-11.723a4.661 4.661 0 010 9.32 4.661 4.661 0 01-4.66-4.66c0-2.572 2.111-4.66 4.66-4.66zm8.544 21.359a1.215 1.215 0 00-1.287 1.116L18.034 40.8c0 .049-.024.098-.024.122l-1.02 15.437a1.272 1.272 0 01-1.262 1.19H8.034c-.68 0-1.238-.535-1.286-1.19l-.996-15.437a1.167 1.167 0 00-.85-1.068c-1.455-.437-1.455-.437-1.577-2.063l-.922-16.384v-.145a267.585 267.585 0 005.34-1.675c.776.922 1.577 1.845 2.427 2.791l.8.898c.22.267.56.413.899.413.34 0 .68-.146.898-.413l.97-1.092c.778-.874 1.506-1.723 2.234-2.573h.097l11.893 2.694a.91.91 0 00.51 0l10.704-2.184a1.232 1.232 0 00.946-1.432c-.145-.655-.776-1.092-1.432-.947l-10.437 2.136-11.747-2.694c-.049 0-.097-.024-.17-.024-.219-.025-1.408-.073-2.087.728-.753.898-1.505 1.747-2.306 2.67l-.049.073c-.825-.923-1.602-1.82-2.378-2.719-.632-.752-1.457-.995-2.355-.68-1.82.583-3.64 1.166-5.461 1.724C.607 19.296 0 20.12 0 21.237v.292l.898 16.165.024.267c.17 2.451.583 3.228 2.476 3.932l.97 14.636a3.712 3.712 0 003.69 3.47h7.694a3.712 3.712 0 003.69-3.47l.995-15.34c0-.049 0-.073.024-.121l1.092-16.02c.025-.655-.485-1.238-1.14-1.262z" fill="#EE2F2D"/><path d="M31.807 31.189v14.28h-2.02V32.964h-3.223v-1.775h5.243zm8.958 14.443c-1.129 0-2.135-.285-3.02-.856-.87-.585-1.556-1.429-2.06-2.53-.503-1.102-.755-2.407-.755-3.917 0-1.51.252-2.815.755-3.917.503-1.102 1.19-1.938 2.06-2.51.885-.584 1.891-.877 3.02-.877 1.115 0 2.108.293 2.979.878.884.57 1.577 1.407 2.08 2.509.504 1.102.755 2.407.755 3.917 0 1.51-.251 2.815-.755 3.917-.503 1.101-1.196 1.945-2.08 2.53-.87.57-1.864.856-2.979.856zm0-1.815c1.142 0 2.054-.47 2.734-1.408.693-.938 1.04-2.298 1.04-4.08s-.347-3.142-1.04-4.08c-.68-.939-1.592-1.408-2.734-1.408-1.156 0-2.08.47-2.774 1.408-.68.938-1.02 2.298-1.02 4.08s.34 3.142 1.02 4.08c.693.938 1.618 1.408 2.774 1.408zm-5.426 5.709v2.743h-.795v-2.09h-.867l-.026.484a5.05 5.05 0 01-.102.898 1.234 1.234 0 01-.265.56c-.123.137-.292.205-.51.205-.116 0-.254-.02-.413-.062l.04-.652c.055.006.094.01.118.01.119 0 .207-.043.265-.128a.784.784 0 00.123-.331c.02-.136.035-.315.045-.536l.041-1.101h2.346zm3.433 1.382l-.015.214H36.68c.037.17.126.304.265.403.14.099.313.148.52.148.143 0 .269-.02.377-.061a.95.95 0 00.312-.205l.423.46c-.258.295-.636.443-1.132.443-.31 0-.583-.06-.821-.178a1.344 1.344 0 01-.551-.505 1.385 1.385 0 01-.194-.73c0-.268.063-.51.189-.724.129-.217.304-.386.525-.505a1.54 1.54 0 01.75-.183c.268 0 .511.058.73.173.217.116.387.282.51.5.125.214.188.464.188.75zm-1.423-.821a.685.685 0 00-.454.153.651.651 0 00-.225.418h1.352a.647.647 0 00-.224-.413.664.664 0 00-.45-.158zm4.243.091h-.928v2.092h-.79v-2.092h-.929v-.652h2.647v.652z" fill="#EE2F2D"/></svg>