<svg width="32" height="32" fill="none" xmlns="http://www.w3.org/2000/svg"><circle cx="16" cy="16" r="14" fill="#46678D"/><path d="M22.924 18.334c-.216-.292-.264-.588-.146-.888.293-.8 4.572-5.88 2.79-5.88-1.225.016-2.698 0-3.872 0a.586.586 0 00-.448.4c-.686 1.584-1.526 3.516-2.758 4.757-.162.13-.263.125-.447.077-.864-.91.057-4.025-.468-5.256-.104-.24-.33-.35-.562-.411-1.173-.28-3.851-.113-4.288.45-.125.16-.142.248-.052.262.416.066.71.223.884.472.328.72.569 4.56-.395 4.56s-2.518-3.768-2.945-4.813c-.114-.314-.403-.494-.708-.548l-2.851.022c-.502 0-.782.247-.604.746 1.485 3.686 4.735 10.832 9.72 10.653.5 0 1.359.192 1.749-.24.536-.712-.118-1.978.801-2.461.232-.123.472-.02.671.132 1.022.778 1.565 2.144 2.826 2.559.221.073.416.091.582.055l2.665-.044c.494 0 .981-.22.88-.811-.39-1.268-1.937-2.572-3.024-3.793z" fill="#fff"/></svg>