<svg width="32" height="32" fill="none" xmlns="http://www.w3.org/2000/svg"><path d="M30 16c0 7.732-6.268 14-14 14-2.949 0-5.685-.912-7.942-2.47l-4.785 1.197 1.254-4.702A13.936 13.936 0 012 16C2 8.268 8.268 2 16 2s14 6.268 14 14z" fill="url(#paint0_linear)"/><path d="M12.5 9.5c-.333-.67-.843-.61-1.36-.61-.921 0-2.359 1.104-2.359 3.16 0 1.684.743 3.527 3.244 6.286 2.413 2.661 5.585 4.038 8.217 3.992 2.633-.047 3.175-2.313 3.175-3.078 0-.34-.21-.509-.356-.555-.897-.43-2.551-1.232-2.928-1.383-.376-.15-.573.053-.695.164-.342.325-1.018 1.284-1.25 1.5-.232.216-.578.107-.721.025-.53-.212-1.964-.85-3.107-1.959-1.414-1.37-1.497-1.842-1.764-2.262-.213-.336-.057-.542.021-.632.305-.352.726-.894.914-1.164.19-.27.04-.68-.05-.934-.387-1.098-.714-2.016-.98-2.55z" fill="#fff"/><defs><linearGradient id="paint0_linear" x1="28.25" y1="5.5" x2="2" y2="30" gradientUnits="userSpaceOnUse"><stop stop-color="#5BD066"/><stop offset="1" stop-color="#27B43E"/></linearGradient></defs></svg>